<svg xmlns="http://www.w3.org/2000/svg" width="18" height="20" viewBox="0 0 18 20" fill="none">
    <path d="M6.05664 15.4001V16.1201C6.05664 16.884 6.36676 17.6166 6.91877 18.1567C7.47078 18.6968 8.21946 19.0003 9.00012 19.0003C9.78078 19.0003 10.5295 18.6968 11.0815 18.1567C11.6335 17.6166 11.9436 16.884 11.9436 16.1201V15.4001M2.39556 7.48008C2.39434 6.62646 2.56572 5.78105 2.89984 4.99253C3.23396 4.204 3.72422 3.48795 4.34238 2.88561C4.96053 2.28327 5.69438 1.80655 6.50163 1.4829C7.30889 1.15925 8.17361 0.995076 9.04599 0.999826C12.6886 1.02683 15.6044 3.98794 15.6044 7.56108V8.2001C15.6044 11.4222 16.2943 13.2943 16.9014 14.3203C16.9659 14.4296 16.9999 14.5535 17 14.6797C17.0001 14.8059 16.9663 14.9299 16.9021 15.0393C16.8378 15.1487 16.7453 15.2396 16.6337 15.303C16.5222 15.3663 16.3957 15.3999 16.2667 15.4004H1.73328C1.60433 15.3999 1.47776 15.3663 1.36625 15.303C1.25475 15.2396 1.16222 15.1487 1.09794 15.0393C1.03366 14.9299 0.999886 14.8059 1 14.6797C1.00011 14.5535 1.03411 14.4296 1.09859 14.3203C1.70568 13.2943 2.39556 11.4222 2.39556 8.2001V7.48008Z" stroke="#222222" stroke-width="1.5" stroke-linecap="round" stroke-linejoin="round"/>
</svg>