<svg xmlns="http://www.w3.org/2000/svg" opacity="0.5" width="24" height="25" viewBox="0 0 24 25" fill="none">
    <path d="M8.25 15.9113C10.9424 15.9113 13.125 13.7286 13.125 11.0363C13.125 8.34387 10.9424 6.16125 8.25 6.16125C5.55761 6.16125 3.375 8.34387 3.375 11.0363C3.375 13.7286 5.55761 15.9113 8.25 15.9113Z" stroke="white" stroke-width="1.2" stroke-linecap="round" stroke-linejoin="round"/>
    <path d="M14.5687 6.33938C14.9997 6.2225 15.4441 6.16261 15.8906 6.16125C17.1835 6.16125 18.4235 6.67487 19.3377 7.58911C20.252 8.50335 20.7656 9.74332 20.7656 11.0363C20.7656 12.3292 20.252 13.5692 19.3377 14.4834C18.4235 15.3976 17.1835 15.9113 15.8906 15.9113" stroke="white" stroke-width="1.2" stroke-linecap="round" stroke-linejoin="round"/>
    <path d="M1.5 19.4175C2.2612 18.3343 3.27191 17.4502 4.44676 16.8399C5.6216 16.2295 6.92608 15.9109 8.25 15.9109C9.57392 15.9109 10.8784 16.2295 12.0532 16.8399C13.2281 17.4502 14.2388 18.3343 15 19.4175" stroke="white" stroke-width="1.2" stroke-linecap="round" stroke-linejoin="round"/>
    <path d="M15.8906 15.9113C17.2147 15.9104 18.5194 16.2287 19.6944 16.839C20.8693 17.4493 21.8799 18.3338 22.6406 19.4175" stroke="white" stroke-width="1.2" stroke-linecap="round" stroke-linejoin="round"/>
</svg>