<?xml version="1.0" standalone="no"?>
<!DOCTYPE svg PUBLIC "-//W3C//DTD SVG 20010904//EN"
 "http://www.w3.org/TR/2001/REC-SVG-20010904/DTD/svg10.dtd">
<svg version="1.0" xmlns="http://www.w3.org/2000/svg"
 width="260.000000pt" height="260.000000pt" viewBox="0 0 260.000000 260.000000"
 preserveAspectRatio="xMidYMid meet">
<metadata>
Created by potrace 1.14, written by Peter Selinger 2001-2017
</metadata>
<g transform="translate(0.000000,260.000000) scale(0.100000,-0.100000)"
fill="#000000" stroke="none">
<path d="M1155 2593 c-160 -28 -213 -40 -285 -66 -187 -65 -354 -170 -490
-307 -76 -77 -99 -108 -30 -42 98 94 214 177 320 228 145 70 206 92 315 110
17 3 46 9 65 13 97 21 337 9 470 -22 57 -14 77 -20 95 -27 11 -4 33 -13 48
-19 16 -6 33 -9 38 -6 5 4 9 2 9 -3 0 -5 19 -17 43 -28 23 -10 59 -29 80 -41
20 -13 37 -20 37 -16 0 5 4 3 8 -2 16 -24 115 -86 127 -81 8 3 12 0 9 -7 -2
-7 17 -30 42 -52 40 -34 120 -122 174 -191 24 -30 64 -95 90 -146 13 -26 28
-44 34 -41 5 3 6 1 3 -5 -6 -9 18 -80 41 -122 5 -8 15 -43 22 -77 8 -34 17
-60 20 -58 4 2 6 -6 5 -18 -1 -12 3 -38 8 -57 9 -36 17 -413 8 -404 -6 5 -43
-147 -45 -183 0 -11 -5 -19 -10 -15 -5 3 -7 -4 -4 -14 3 -11 -1 -25 -9 -32 -7
-7 -11 -17 -8 -23 4 -5 1 -9 -4 -9 -6 0 -11 -7 -11 -15 0 -9 -7 -27 -16 -40
-9 -13 -12 -30 -8 -36 4 -8 3 -9 -4 -5 -7 4 -12 3 -12 -3 0 -9 -58 -109 -70
-121 -3 -3 -17 -23 -32 -45 -14 -22 -40 -54 -57 -72 -17 -18 -31 -37 -31 -42
0 -6 -3 -11 -7 -11 -5 0 -31 -22 -59 -48 -70 -65 -95 -86 -132 -108 -18 -10
-32 -21 -32 -25 0 -4 -9 -9 -21 -12 -13 -4 -18 -10 -13 -18 4 -7 3 -10 -3 -6
-11 7 -63 -14 -63 -25 0 -5 -7 -8 -15 -8 -8 0 -29 -8 -47 -18 -18 -10 -62 -28
-98 -41 -36 -12 -72 -25 -80 -28 -15 -6 -42 -12 -67 -15 -7 -1 -13 -4 -13 -7
0 -3 -26 -7 -57 -8 -31 -2 -60 -8 -64 -14 -4 -7 -9 -7 -13 -1 -3 5 -22 7 -43
3 -35 -6 -113 -6 -205 0 -38 2 -55 19 -20 19 10 0 43 7 75 15 31 8 86 17 121
20 207 15 395 83 581 208 77 52 268 244 261 263 -3 7 0 16 6 20 7 5 8 2 4 -7
-4 -8 -1 -5 8 6 8 11 19 25 24 30 27 34 82 136 77 145 -3 5 -2 10 3 10 13 0
33 50 26 62 -4 6 -2 8 3 5 13 -8 27 39 17 55 -4 6 -3 8 3 5 15 -9 23 29 9 43
-8 9 -7 11 3 8 14 -3 45 88 35 104 -3 4 0 8 6 8 8 0 7 6 -1 21 -6 12 -7 19 -1
15 6 -3 12 12 15 37 5 46 1 296 -6 338 -12 68 -31 138 -36 135 -3 -2 -6 9 -7
26 -1 16 -6 39 -11 51 -24 56 -97 203 -103 207 -4 3 -9 12 -12 20 -12 33 -100
140 -110 134 -7 -4 -8 -2 -4 5 13 20 -161 179 -264 240 -71 42 -214 109 -253
117 -12 3 -26 6 -32 7 -5 2 -14 5 -20 9 -19 11 -127 30 -146 25 -10 -3 -17 -1
-13 4 3 5 -5 9 -18 10 -13 0 -35 2 -51 4 -19 3 -25 0 -21 -8 5 -8 3 -8 -7 1
-7 6 -34 12 -59 12 -25 0 -52 -6 -59 -12 -11 -11 -13 -10 -7 0 6 10 -16 12
-44 2 -3 -1 -20 -1 -39 0 -18 1 -31 -2 -28 -7 3 -4 -9 -8 -26 -9 -43 0 -118
-14 -137 -24 -8 -4 -19 -9 -25 -9 -25 -4 -124 -44 -121 -50 2 -3 -7 -7 -21 -8
-14 0 -38 -10 -54 -22 -15 -12 -33 -21 -39 -21 -5 0 -10 -5 -10 -12 0 -6 -3
-9 -6 -5 -3 3 -28 -10 -55 -29 -70 -49 -80 -57 -180 -150 -37 -34 -79 -81 -79
-89 0 -3 -9 -14 -20 -25 -12 -12 -18 -26 -14 -32 4 -6 3 -8 -3 -5 -13 8 -87
-119 -77 -134 4 -7 3 -9 -3 -6 -9 6 -47 -65 -60 -108 -1 -5 -16 -56 -32 -112
-33 -113 -45 -199 -44 -318 2 -214 2 -266 2 -338 -1 -88 16 -204 37 -254 8
-18 11 -33 8 -33 -4 0 -2 -6 3 -12 6 -7 13 -26 17 -41 4 -15 10 -26 14 -23 4
2 9 -4 9 -15 3 -36 93 -168 171 -249 41 -44 77 -78 79 -76 2 2 17 -9 32 -23
26 -24 126 -78 234 -126 22 -9 47 -15 58 -12 10 3 17 2 14 -3 -5 -8 76 -25
170 -36 33 -3 79 -12 102 -19 31 -9 45 -10 54 -1 9 8 10 8 5 -1 -4 -8 -2 -14
6 -14 7 -1 22 -3 33 -5 61 -12 143 -17 250 -16 151 1 156 1 240 19 39 8 81 17
94 19 14 3 29 8 35 12 6 3 20 8 31 9 10 2 22 7 25 11 3 4 10 7 15 7 20 0 125
48 125 57 0 5 4 7 9 4 19 -12 224 130 324 224 43 41 63 71 35 54 -7 -4 -8 -3
-4 4 4 6 12 9 19 7 19 -7 162 194 204 285 6 14 19 43 29 65 10 22 18 42 19 45
0 3 3 10 7 15 9 16 47 146 59 206 20 106 30 264 17 292 -6 11 -5 17 2 17 6 0
9 4 6 8 -3 5 -6 29 -7 55 -2 26 -7 47 -11 47 -5 0 -7 4 -4 9 6 10 -21 169 -32
186 -7 11 -9 17 -11 41 0 8 -5 12 -11 9 -5 -3 -7 0 -5 8 3 7 -6 40 -20 73 -15
32 -32 71 -38 87 -7 15 -15 27 -18 27 -4 0 -9 10 -13 23 -3 12 -12 31 -21 42
-8 11 -29 41 -46 68 -17 26 -36 44 -41 40 -6 -3 -8 -1 -5 4 9 14 -32 65 -45
57 -6 -4 -8 -3 -5 3 9 14 -22 55 -36 47 -7 -4 -9 -4 -5 1 10 10 -130 141 -165
154 -6 2 -19 12 -29 21 -10 9 -31 23 -46 31 -15 8 -29 17 -32 20 -9 11 -106
57 -185 89 -79 31 -151 52 -230 65 -16 3 -43 8 -60 11 -34 7 -290 12 -320 7z
m-100 -153 c-3 -5 -12 -10 -18 -10 -7 0 -6 4 3 10 19 12 23 12 15 0z m159 -38
c2 -4 -4 -8 -14 -8 -10 0 -16 4 -14 8 3 4 9 8 14 8 5 0 11 -4 14 -8z m-450
-212 c-6 -6 -10 -3 -10 10 0 13 4 16 10 10 7 -7 7 -13 0 -20z m800 0 c-6 -6
-10 -3 -10 10 0 13 4 16 10 10 7 -7 7 -13 0 -20z m-167 -79 c87 -18 196 -58
264 -97 35 -21 66 -40 69 -43 3 -3 25 -21 50 -40 25 -19 63 -56 85 -83 22 -27
46 -56 53 -63 19 -21 89 -155 108 -205 22 -62 43 -161 45 -221 2 -27 6 -52 11
-55 5 -3 5 -11 1 -17 -8 -13 -9 -18 -17 -92 -7 -71 -13 -97 -41 -173 -14 -37
-27 -71 -28 -77 -1 -5 -4 -12 -7 -15 -3 -3 -23 -34 -45 -70 -21 -36 -56 -83
-77 -105 -21 -22 -38 -43 -38 -47 0 -5 -7 -8 -15 -8 -7 0 -19 -8 -25 -17 -11
-17 -11 -17 -6 0 25 79 35 126 32 149 -2 15 1 25 5 22 8 -4 10 23 12 121 0 46
-14 173 -23 205 -6 19 -13 55 -16 80 -16 135 -24 181 -33 176 -3 -2 -7 7 -8
21 0 14 -7 37 -13 52 -7 14 -17 37 -23 51 -18 41 -119 180 -128 175 -4 -3 -10
3 -13 13 -8 26 -103 95 -117 86 -7 -4 -9 -3 -5 4 8 13 -83 65 -101 57 -8 -2
-11 0 -8 5 3 6 -2 10 -12 10 -11 0 -24 5 -29 10 -6 6 -25 12 -42 13 -18 1 -32
5 -32 8 0 3 -6 6 -12 7 -7 0 -38 4 -68 7 -30 4 -68 7 -85 7 -111 0 -305 -48
-305 -75 0 -6 -3 -8 -6 -4 -3 3 -26 -3 -51 -14 -24 -10 -49 -19 -55 -19 -15 0
64 88 81 89 8 1 11 7 7 17 -3 8 -2 12 4 9 14 -9 52 14 44 27 -4 7 -3 8 4 4 11
-6 60 18 73 37 3 5 9 9 12 8 4 0 24 7 44 16 54 23 204 63 214 58 4 -3 10 -2
13 3 6 11 190 6 253 -7z m293 -15 c0 -2 -8 -10 -17 -17 -16 -13 -17 -12 -4 4
13 16 21 21 21 13z m-950 -52 c0 -8 -19 -13 -24 -6 -3 5 1 9 9 9 8 0 15 -2 15
-3z m-255 -172 c-3 -3 -11 0 -18 7 -9 10 -8 11 6 5 10 -3 15 -9 12 -12z m1605
-36 c-7 -7 -13 -7 -20 0 -6 6 -3 10 10 10 13 0 16 -4 10 -10z m391 -169 c-10
-9 -11 -8 -5 6 3 10 9 15 12 12 3 -3 0 -11 -7 -18z m-2270 -24 c13 -16 12 -17
-3 -4 -10 7 -18 15 -18 17 0 8 8 3 21 -13z m801 -69 c72 -9 64 -7 103 -22 58
-23 145 -67 145 -74 0 -5 6 -8 14 -8 8 0 17 -7 20 -16 3 -8 10 -12 16 -9 5 3
10 2 10 -2 0 -5 19 -29 43 -54 49 -52 67 -81 107 -166 47 -98 54 -145 30 -195
-11 -22 -17 -45 -14 -49 3 -5 -2 -9 -10 -9 -9 0 -16 -4 -16 -9 0 -15 -114
-128 -138 -135 -12 -4 -19 -12 -16 -18 4 -7 2 -8 -5 -4 -6 4 -18 2 -26 -4 -8
-7 -15 -9 -15 -4 0 5 -4 3 -9 -4 -4 -7 -18 -14 -29 -15 -12 -1 -22 -4 -22 -7
0 -3 -13 -6 -28 -7 -40 -3 -80 -11 -92 -18 -5 -3 -10 -1 -10 6 0 7 -8 6 -25
-5 -21 -14 -24 -14 -19 -1 7 16 -19 17 -43 2 -9 -6 -11 -3 -6 10 6 16 5 17
-12 3 -11 -9 -16 -10 -11 -2 5 8 0 12 -14 12 -11 0 -29 6 -40 13 -17 10 -22 9
-31 -3 -9 -13 -10 -12 -5 3 4 11 -1 20 -12 24 -9 4 -34 17 -54 31 -20 13 -42
21 -47 17 -6 -3 -9 0 -6 8 5 12 -50 72 -67 72 -3 0 -10 4 -15 9 -5 5 -3 6 5 2
6 -4 12 -3 12 3 0 5 -6 14 -14 18 -8 4 -16 17 -18 28 -2 13 -11 19 -23 18 -11
-1 -14 0 -7 3 14 7 16 34 2 34 -6 0 -9 3 -9 8 1 4 1 14 0 22 -1 13 -2 13 -11
0 -5 -8 -10 -10 -10 -4 0 5 5 15 12 22 7 7 8 12 2 12 -6 0 -11 6 -11 13 -1 6
-2 33 -4 59 -1 28 -6 45 -12 41 -6 -4 -7 -1 -1 8 4 8 9 27 10 43 2 16 8 52 15
80 7 28 13 53 14 56 0 3 6 15 13 28 7 12 10 28 6 34 -4 7 -3 8 4 4 7 -4 12 -3
12 2 0 5 13 23 29 40 24 24 46 34 108 47 43 9 82 17 86 18 13 4 72 0 139 -9z
m1274 -94 c0 -12 -4 -16 -9 -11 -5 5 -6 14 -3 20 10 15 12 14 12 -9z m-1701
-100 c3 -5 1 -10 -4 -10 -6 0 -11 5 -11 10 0 6 2 10 4 10 3 0 8 -4 11 -10z
m-2 -35 c-3 -9 -8 -14 -10 -11 -3 3 -2 9 2 15 9 16 15 13 8 -4z m-56 -20 c0
-8 -4 -12 -9 -9 -5 3 -6 10 -3 15 9 13 12 11 12 -6z m38 -13 c-3 -3 -11 0 -18
7 -9 10 -8 11 6 5 10 -3 15 -9 12 -12z m5 -26 c0 -2 -7 -7 -16 -10 -8 -3 -12
-2 -9 4 6 10 25 14 25 6z m-44 -62 c1 -9 0 -13 -4 -10 -3 4 -7 14 -8 22 -1 9
0 13 4 10 3 -4 7 -14 8 -22z m1718 10 c3 -8 2 -12 -4 -9 -6 3 -10 10 -10 16 0
14 7 11 14 -7z m-1749 -14 c3 -6 -1 -7 -9 -4 -18 7 -21 14 -7 14 6 0 13 -4 16
-10z m72 -35 c0 -8 -4 -12 -9 -9 -5 3 -6 10 -3 15 9 13 12 11 12 -6z m-79 -14
c-7 -9 -13 -18 -15 -20 -1 -2 -1 5 0 16 0 11 7 20 14 20 10 0 10 -4 1 -16z
m38 -17 c1 -9 0 -13 -4 -10 -3 4 -7 14 -8 22 -1 9 0 13 4 10 3 -4 7 -14 8 -22z
m41 -7 c0 -8 -6 -14 -14 -14 -9 0 -10 4 -2 14 6 7 12 13 14 13 1 0 2 -6 2 -13z
m1607 -25 c2 -4 -4 -8 -14 -8 -10 0 -16 4 -14 8 3 4 9 8 14 8 5 0 11 -4 14 -8z
m-1686 -47 c-3 -3 -9 2 -12 12 -6 14 -5 15 5 6 7 -7 10 -15 7 -18z m92 9 c0
-8 -19 -13 -24 -6 -3 5 1 9 9 9 8 0 15 -2 15 -3z m-49 -21 c13 -16 12 -17 -3
-4 -10 7 -18 15 -18 17 0 8 8 3 21 -13z m0 -46 c-6 -8 -8 -16 -5 -19 3 -3 1
-9 -4 -12 -6 -3 -9 0 -8 6 2 16 15 38 23 38 3 0 0 -6 -6 -13z m69 -53 c0 -8
-19 -13 -24 -6 -3 5 1 9 9 9 8 0 15 -2 15 -3z m40 0 c0 -8 -19 -13 -24 -6 -3
5 1 9 9 9 8 0 15 -2 15 -3z m867 -29 c0 -8 -4 -12 -9 -9 -5 3 -6 10 -3 15 9
13 12 11 12 -6z m-841 -55 c0 -12 -4 -16 -9 -11 -5 5 -6 14 -3 20 10 15 12 14
12 -9z m59 8 c5 4 5 1 1 -6 -6 -10 -11 -10 -22 -1 -8 6 -14 14 -14 16 0 3 6 0
13 -6 8 -6 18 -7 22 -3z m-115 -8 c0 -5 -2 -10 -4 -10 -3 0 -8 5 -11 10 -3 6
-1 10 4 10 6 0 11 -4 11 -10z m840 0 c0 -5 -2 -10 -4 -10 -3 0 -8 5 -11 10 -3
6 -1 10 4 10 6 0 11 -4 11 -10z m-799 -63 c-6 -8 -9 -16 -6 -19 3 -2 -2 -5
-10 -5 -13 0 -13 3 2 19 19 21 31 25 14 5z m110 -4 c13 -16 12 -17 -3 -4 -10
7 -18 15 -18 17 0 8 8 3 21 -13z m647 -18 c-3 -3 -9 2 -12 12 -6 14 -5 15 5 6
7 -7 10 -15 7 -18z m35 10 c-3 -9 -8 -14 -10 -11 -3 3 -2 9 2 15 9 16 15 13 8
-4z m-753 -5 c0 -5 -5 -10 -11 -10 -5 0 -7 5 -4 10 3 6 8 10 11 10 2 0 4 -4 4
-10z m33 -15 c-3 -9 -8 -14 -10 -11 -3 3 -2 9 2 15 9 16 15 13 8 -4z m44 -17
c2 -17 0 -19 -7 -8 -5 8 -6 18 -4 22 8 12 10 10 11 -14z m47 14 c3 -5 -1 -9
-9 -9 -8 0 -15 4 -15 9 0 4 4 8 9 8 6 0 12 -4 15 -8z m-126 -27 c-3 -3 -9 2
-12 12 -6 14 -5 15 5 6 7 -7 10 -15 7 -18z m242 1 c0 -2 -8 -10 -17 -17 -16
-13 -17 -12 -4 4 13 16 21 21 21 13z m-120 -10 c0 -2 -7 -7 -16 -10 -8 -3 -12
-2 -9 4 6 10 25 14 25 6z m421 -23 c13 -16 12 -17 -3 -4 -10 7 -18 15 -18 17
0 8 8 3 21 -13z m199 -4 c0 -5 -4 -9 -8 -9 -5 0 -9 7 -9 15 0 8 4 12 9 9 4 -3
8 -9 8 -15z m-616 3 c3 -5 -1 -9 -9 -9 -8 0 -12 4 -9 9 3 4 7 8 9 8 2 0 6 -4
9 -8z m180 0 c3 -5 -1 -9 -9 -9 -8 0 -12 4 -9 9 3 4 7 8 9 8 2 0 6 -4 9 -8z
m336 4 c0 -3 -4 -8 -10 -11 -5 -3 -10 -1 -10 4 0 6 5 11 10 11 6 0 10 -2 10
-4z m-39 -23 c13 -16 12 -17 -3 -4 -10 7 -18 15 -18 17 0 8 8 3 21 -13z m76 4
c0 -8 -6 -14 -14 -14 -9 0 -10 4 -2 14 6 7 12 13 14 13 1 0 2 -6 2 -13z m-442
-25 c-3 -3 1 -12 8 -21 11 -14 10 -14 -6 -2 -9 8 -15 16 -12 19 3 3 -1 12 -8
21 -11 14 -10 14 6 2 9 -8 15 -16 12 -19z m41 3 c1 -8 -1 -17 -5 -19 -4 -3 -7
6 -7 19 0 25 8 25 12 0z m-139 0 c0 -8 -4 -15 -9 -15 -10 0 -11 14 -1 23 9 10
10 9 10 -8z m437 -15 c-6 -6 -10 -3 -10 10 0 13 4 16 10 10 7 -7 7 -13 0 -20z
m-400 4 c3 -8 2 -12 -4 -9 -6 3 -10 10 -10 16 0 14 7 11 14 -7z m166 7 c0 -6
-4 -12 -8 -15 -5 -3 -9 1 -9 9 0 8 4 15 9 15 4 0 8 -4 8 -9z m140 -16 c14 -19
14 -19 -2 -6 -10 7 -18 18 -18 24 0 6 1 8 3 6 1 -2 9 -13 17 -24z m-404 -11
c1 -9 0 -13 -4 -10 -3 4 -7 14 -8 22 -1 9 0 13 4 10 3 -4 7 -14 8 -22z m359 7
c3 -5 2 -12 -3 -15 -5 -3 -9 1 -9 9 0 17 3 19 12 6z m-280 -21 c3 -5 1 -10 -4
-10 -6 0 -11 5 -11 10 0 6 2 10 4 10 3 0 8 -4 11 -10z m256 -7 c13 -16 12 -17
-3 -4 -10 7 -18 15 -18 17 0 8 8 3 21 -13z m200 0 c12 -16 12 -17 -2 -6 -9 7
-20 9 -24 5 -5 -4 -5 -1 -1 6 9 16 11 15 27 -5z m49 8 c0 -6 -4 -12 -8 -15 -5
-3 -9 1 -9 9 0 8 4 15 9 15 4 0 8 -4 8 -9z m-416 -23 c-3 -4 -9 -8 -15 -8 -5
0 -9 4 -9 8 0 5 7 9 15 9 8 0 12 -4 9 -9z m240 0 c-3 -4 -9 -8 -15 -8 -5 0 -9
4 -9 8 0 5 7 9 15 9 8 0 12 -4 9 -9z m-99 -18 c-3 -5 -12 -10 -18 -10 -7 0 -6
4 3 10 19 12 23 12 15 0z m-30 -30 c10 -11 16 -20 13 -20 -3 0 -13 9 -23 20
-10 11 -16 20 -13 20 3 0 13 -9 23 -20z m129 12 c3 -5 -1 -9 -9 -9 -8 0 -15 4
-15 9 0 4 4 8 9 8 6 0 12 -4 15 -8z m41 -2 c-3 -5 -12 -10 -18 -10 -7 0 -6 4
3 10 19 12 23 12 15 0z m141 -17 c-4 -10 -27 -33 -52 -52 -39 -30 -52 -34 -97
-32 -29 1 -59 3 -67 5 -8 1 -36 6 -63 11 -26 4 -50 11 -53 16 -3 5 2 6 11 3 8
-4 23 0 32 7 12 10 15 10 9 2 -11 -19 5 -15 20 5 13 16 14 16 8 0 -5 -14 -1
-16 16 -13 13 2 32 12 44 22 11 10 15 11 9 3 -19 -20 -16 -29 7 -23 11 3 18 8
16 12 -2 3 8 7 22 7 41 1 92 16 87 24 -3 5 4 6 15 3 13 -3 22 1 26 11 9 23 17
12 10 -11z m-408 -8 c-3 -3 -9 2 -12 12 -6 14 -5 15 5 6 7 -7 10 -15 7 -18z
m57 5 c3 -5 1 -10 -4 -10 -6 0 -11 5 -11 10 0 6 2 10 4 10 3 0 8 -4 11 -10z
m99 1 c-9 -9 -34 -9 -34 -1 0 5 9 8 20 7 10 -1 17 -3 14 -6z m146 -1 c0 -5 -5
-10 -11 -10 -5 0 -7 5 -4 10 3 6 8 10 11 10 2 0 4 -4 4 -10z"/>
</g>
</svg>
