<svg xmlns="http://www.w3.org/2000/svg" opacity="0.5" width="24" height="25" viewBox="0 0 24 25" fill="none">
    <path d="M3.75 21.9113C4.99264 21.9113 6 20.9039 6 19.6613C6 18.4186 4.99264 17.4113 3.75 17.4113C2.50736 17.4113 1.5 18.4186 1.5 19.6613C1.5 20.9039 2.50736 21.9113 3.75 21.9113Z" stroke="white" stroke-width="1.2" stroke-linecap="round" stroke-linejoin="round"/>
    <path d="M9 12.1613C10.2426 12.1613 11.25 11.1539 11.25 9.91125C11.25 8.66861 10.2426 7.66125 9 7.66125C7.75736 7.66125 6.75 8.66861 6.75 9.91125C6.75 11.1539 7.75736 12.1613 9 12.1613Z" stroke="white" stroke-width="1.2" stroke-linecap="round" stroke-linejoin="round"/>
    <path d="M15 18.1613C16.2426 18.1613 17.25 17.1539 17.25 15.9113C17.25 14.6686 16.2426 13.6613 15 13.6613C13.7574 13.6613 12.75 14.6686 12.75 15.9113C12.75 17.1539 13.7574 18.1613 15 18.1613Z" stroke="white" stroke-width="1.2" stroke-linecap="round" stroke-linejoin="round"/>
    <path d="M20.25 8.41125C21.4926 8.41125 22.5 7.4039 22.5 6.16125C22.5 4.91861 21.4926 3.91125 20.25 3.91125C19.0074 3.91125 18 4.91861 18 6.16125C18 7.4039 19.0074 8.41125 20.25 8.41125Z" stroke="white" stroke-width="1.2" stroke-linecap="round" stroke-linejoin="round"/>
    <path d="M7.93123 11.8894L4.81873 17.6831" stroke="white" stroke-width="1.2" stroke-linecap="round" stroke-linejoin="round"/>
    <path d="M13.4062 14.3175L10.5938 11.505" stroke="white" stroke-width="1.2" stroke-linecap="round" stroke-linejoin="round"/>
    <path d="M19.1812 8.13937L16.0687 13.9331" stroke="white" stroke-width="1.2" stroke-linecap="round" stroke-linejoin="round"/>
</svg>