<svg width="48" height="48" viewBox="0 0 48 48" fill="none" xmlns="http://www.w3.org/2000/svg">
<rect width="48" height="48" rx="24" fill="white"/>
<path d="M21.0566 29.4001V30.1202C21.0566 30.884 21.3668 31.6166 21.9188 32.1567C22.4708 32.6968 23.2195 33.0003 24.0001 33.0003C24.7808 33.0003 25.5295 32.6968 26.0815 32.1567C26.6335 31.6166 26.9436 30.884 26.9436 30.1202V29.4001M17.3956 21.4801C17.3943 20.6265 17.5657 19.7811 17.8998 18.9926C18.234 18.204 18.7242 17.488 19.3424 16.8856C19.9605 16.2833 20.6944 15.8066 21.5016 15.4829C22.3089 15.1593 23.1736 14.9951 24.046 14.9999C27.6886 15.0269 30.6044 17.988 30.6044 21.5611V22.2001C30.6044 25.4223 31.2943 27.2943 31.9014 28.3204C31.9659 28.4296 31.9999 28.5536 32 28.6798C32.0001 28.8059 31.9663 28.9299 31.9021 29.0393C31.8378 29.1487 31.7453 29.2396 31.6337 29.303C31.5222 29.3664 31.3957 29.4 31.2667 29.4004H16.7333C16.6043 29.4 16.4778 29.3664 16.3663 29.303C16.2547 29.2396 16.1622 29.1487 16.0979 29.0393C16.0337 28.9299 15.9999 28.8059 16 28.6798C16.0001 28.5536 16.0341 28.4296 16.0986 28.3204C16.7057 27.2943 17.3956 25.4223 17.3956 22.2001V21.4801Z" stroke="#575756" stroke-width="1.5" stroke-linecap="round" stroke-linejoin="round"/>
<circle cx="31" cy="16" r="5" fill="#F7A508" stroke="white" stroke-width="2"/>
</svg>
